HIERARCHY
ROOT Hips
{
  OFFSET -27.3825 93.2414 -29.4013
  CHANNELS 6 Xposition Yposition Zposition Zrotation Xrotation Yrotation
  JOINT LeftUpLeg
  {
    OFFSET 9.63379 -0.250344 0
    CHANNELS 6 Xposition Yposition Zposition Zrotation Xrotation Yrotation
    JOINT LeftLeg
    {
      OFFSET 0 -40.4779 -1.71313
      CHANNELS 6 Xposition Yposition Zposition Zrotation Xrotation Yrotation
      JOINT LeftFoot
      {
        OFFSET 0.0126047 -40.4416 -0.864524
        CHANNELS 6 Xposition Yposition Zposition Zrotation Xrotation Yrotation
        JOINT LeftToeBase
        {
          OFFSET -0.183287 -12.1867 8.28226
          CHANNELS 6 Xposition Yposition Zposition Zrotation Xrotation Yrotation
          End Site
          {
            OFFSET 0 0 9.15615
          }
        }
      }
    }
  }
  JOINT RightUpLeg
  {
    OFFSET -9.63379 -0.250344 0
    CHANNELS 6 Xposition Yposition Zposition Zrotation Xrotation Yrotation
    JOINT RightLeg
    {
      OFFSET 0 -40.478 -1.71313
      CHANNELS 6 Xposition Yposition Zposition Zrotation Xrotation Yrotation
      JOINT RightFoot
      {
        OFFSET -0.0126047 -40.4414 -0.864524
        CHANNELS 6 Xposition Yposition Zposition Zrotation Xrotation Yrotation
        JOINT RightToeBase
        {
          OFFSET 0.183287 -12.1867 8.28226
          CHANNELS 6 Xposition Yposition Zposition Zrotation Xrotation Yrotation
          End Site
          {
            OFFSET 0.00319481 0 9.156
          }
        }
      }
    }
  }
  JOINT Spine
  {
    OFFSET 0 5.60909 -1.89659
    CHANNELS 6 Xposition Yposition Zposition Zrotation Xrotation Yrotation
    JOINT Spine1
    {
      OFFSET 0 6.56349 1.09934
      CHANNELS 6 Xposition Yposition Zposition Zrotation Xrotation Yrotation
      JOINT Spine2
      {
        OFFSET 0 7.57662 1.04304
        CHANNELS 6 Xposition Yposition Zposition Zrotation Xrotation Yrotation
        JOINT Spine3
        {
          OFFSET 0 8.29213 0.399731
          CHANNELS 6 Xposition Yposition Zposition Zrotation Xrotation Yrotation
          JOINT Spine4
          {
            OFFSET 0 8.9581 -0.526302
            CHANNELS 6 Xposition Yposition Zposition Zrotation Xrotation Yrotation
            JOINT Neck
            {
              OFFSET 0 18.4163 -4.35419
              CHANNELS 6 Xposition Yposition Zposition Zrotation Xrotation Yrotation
              JOINT Head
              {
                OFFSET 0 8.97127 1.78542
                CHANNELS 6 Xposition Yposition Zposition Zrotation Xrotation Yrotation
                End Site
                {
                  OFFSET 0 19.3737 0.971395
                }
              }
            }
            JOINT LeftShoulder
            {
              OFFSET 6.14423 15.3316 -3.79324
              CHANNELS 6 Xposition Yposition Zposition Zrotation Xrotation Yrotation
              JOINT LeftArm
              {
                OFFSET 9.01906 -1.11411 -1.79347
                CHANNELS 6 Xposition Yposition Zposition Zrotation Xrotation Yrotation
                JOINT LeftForeArm
                {
                  OFFSET 27.687 0 0
                  CHANNELS 6 Xposition Yposition Zposition Zrotation Xrotation Yrotation
                  JOINT LeftHand
                  {
                    OFFSET 27.8738 0 0
                    CHANNELS 6 Xposition Yposition Zposition Zrotation Xrotation Yrotation
                    End Site
                    {
                      OFFSET 5 0 0
                    }
                  }
                }
              }
            }
            JOINT RightShoulder
            {
              OFFSET -6.14423 15.3316 -3.79324
              CHANNELS 6 Xposition Yposition Zposition Zrotation Xrotation Yrotation
              JOINT RightArm
              {
                OFFSET -9.01884 -1.11411 -1.79347
                CHANNELS 6 Xposition Yposition Zposition Zrotation Xrotation Yrotation
                JOINT RightForeArm
                {
                  OFFSET -27.0381 0.00109999 0
                  CHANNELS 6 Xposition Yposition Zposition Zrotation Xrotation Yrotation
                  JOINT RightHand
                  {
                    OFFSET -28.5227 0 0
                    CHANNELS 6 Xposition Yposition Zposition Zrotation Xrotation Yrotation
                    End Site
                    {
                      OFFSET -5 0 0
                    }
                  }
                }
              }
            }
          }
        }
      }
    }
  }
}
MOTION
Frames:	4
Frame Time:	0.00833333
-31.2339 95.1389 94.754 -6.96296 -13.7259 173.145 9.63379 -0.250344 -7.15256e-007 -4.20752 -39.174 -0.988355 0 -40.4779 -1.71313 2.28086 36.1985 -0.976455 0.0126047 -40.4416 -0.864524 0.0481018 -2.77673 -0.00245025 -0.183287 -12.1867 8.28226 1.70565e-011 -4.43765e-011 -5.82837e-011 -9.63379 -0.250344 -7.15256e-007 -4.73995 -7.62388 0.731471 0 -40.478 -1.71313 9.07717 4.55034 -1.32732 -0.0126047 -40.4414 -0.864524 0.140391 1.18952 -0.000309646 0.183287 -12.1867 8.28226 -8.64351e-012 2.42533e-011 2.08613e-011 -2.64698e-023 5.60909 -1.89659 -2.21836 -0.319118 0.504386 0 6.56349 1.09934 -0.668676 -0.773342 1.83613 0 7.57662 1.04304 -0.666909 -0.771835 1.83744 0 8.29213 0.399731 -0.665077 -0.7704 1.83874 0 8.9581 -0.526302 -0.66318 -0.769039 1.84003 0 18.4163 -4.35419 -4.87679 -13.1102 1.59753 1.05879e-022 8.97127 1.78542 10.3051 -4.84167 -1.25936 6.14423 15.3316 -3.79324 -33.4376 2.36747 -2.48709 9.01906 -1.11411 -1.79347 -50.8578 -1.29865 -23.997 27.687 0 0 9.30588 20.2505 2.96169e-011 27.8738 0 0 -2.25477 -3.37549 -13.6845 -6.14423 15.3316 -3.79324 34.4625 3.72323 5.66751 -9.01884 -1.11411 -1.79347 29.5518 30.3537 41.669 -27.0381 0.00109999 5.96046e-008 4.91204 12.7616 0.670905 -28.5227 0 0 -20.585 -3.2752 8.03423 
-31.3264 95.0667 93.9915 -7.12916 -13.6348 172.281 9.63379 -0.250344 -7.15256e-007 -4.09337 -38.9564 -1.03945 0 -40.4779 -1.71313 1.94756 33.2315 -0.786842 0.0126047 -40.4416 -0.864524 0.0550022 -2.82285 -0.00224801 -0.183287 -12.1867 8.28226 1.70565e-011 -4.43765e-011 -5.82837e-011 -9.63379 -0.250344 -7.15256e-007 -4.81722 -7.2471 1.02651 0 -40.478 -1.71313 8.8553 4.67011 -1.20345 -0.0126047 -40.4414 -0.864524 0.128642 1.28112 -0.000260959 0.183287 -12.1867 8.28226 -8.64351e-012 2.42533e-011 2.08613e-011 -2.64698e-023 5.60909 -1.89659 -2.06101 -0.30625 0.54245 0 6.56349 1.09934 -0.690703 -0.744593 1.86063 0 7.57662 1.04304 -0.68894 -0.743196 1.86187 0 8.29213 0.399731 -0.687115 -0.741871 1.8631 0 8.9581 -0.526302 -0.685231 -0.740619 1.86431 0 18.4163 -4.35419 -5.10269 -13.3085 1.77789 1.05879e-022 8.97127 1.78542 10.2889 -4.85508 -1.11817 6.14423 15.3316 -3.79324 -33.4054 2.38004 -2.52402 9.01906 -1.11411 -1.79347 -50.8744 -1.09563 -24.2725 27.687 0 0 9.23123 20.297 3.01299e-011 27.8738 0 0 -2.03285 -3.31297 -13.4384 -6.14423 15.3316 -3.79324 34.4734 3.73698 5.69877 -9.01884 -1.11411 -1.79347 29.5029 30.5284 41.817 -27.0381 0.00109999 5.96046e-008 4.86445 12.7874 0.838306 -28.5227 0 0 -20.4321 -3.25061 8.07941 
-31.4161 94.9721 93.1939 -7.21961 -13.5532 171.51 9.63379 -0.250344 -7.15256e-007 -3.88959 -38.5368 -1.00295 0 -40.4779 -1.71313 1.57798 29.8814 -0.618946 0.0126047 -40.4416 -0.864524 0.068987 -2.72815 -0.00204929 -0.183287 -12.1867 8.28226 1.70565e-011 -4.43765e-011 -5.82837e-011 -9.63379 -0.250344 -7.15256e-007 -4.8472 -6.79731 1.31954 0 -40.478 -1.71313 8.67017 4.71124 -1.08543 -0.0126047 -40.4414 -0.864524 0.119345 1.39787 -0.00021269 0.183287 -12.1867 8.28226 -8.64351e-012 2.42533e-011 2.08613e-011 -2.64698e-023 5.60909 -1.89659 -1.86578 -0.301475 0.588633 0 6.56349 1.09934 -0.707024 -0.725987 1.87388 0 7.57662 1.04304 -0.705357 -0.724743 1.87501 0 8.29213 0.399731 -0.703634 -0.723568 1.87612 0 8.9581 -0.526302 -0.701859 -0.722462 1.87723 0 18.4163 -4.35419 -5.27365 -13.418 1.9489 1.05879e-022 8.97127 1.78542 10.2432 -4.89372 -0.971345 6.14423 15.3316 -3.79324 -33.334 2.39538 -2.57425 9.01906 -1.11411 -1.79347 -50.9425 -0.940607 -24.5277 27.687 0 0 9.18988 20.4184 3.06588e-011 27.8738 0 0 -1.8748 -3.27016 -13.3324 -6.14423 15.3316 -3.79324 34.4917 3.74893 5.72385 -9.01884 -1.11411 -1.79347 29.4788 30.7047 41.8889 -27.0381 0.00109999 5.96046e-008 4.82656 12.7906 0.984789 -28.5227 0 0 -20.2978 -3.23068 8.13091 
-31.5043 94.8599 92.3654 -7.2443 -13.4795 170.813 9.63379 -0.250344 -7.15256e-007 -3.58246 -37.9223 -0.869309 0 -40.4779 -1.71313 1.16465 26.1499 -0.459699 0.0126047 -40.4416 -0.864524 0.0898458 -2.51328 -0.00185499 -0.183287 -12.1867 8.28226 1.70565e-011 -4.43765e-011 -5.82837e-011 -9.63379 -0.250344 -7.15256e-007 -4.83241 -6.28541 1.61903 0 -40.478 -1.71313 8.50223 4.67791 -0.962618 -0.0126047 -40.4414 -0.864524 0.111844 1.54373 -0.000164868 0.183287 -12.1867 8.28226 -8.64351e-012 2.42533e-011 2.08613e-011 -2.64698e-023 5.60909 -1.89659 -1.63281 -0.303512 0.643358 0 6.56349 1.09934 -0.719135 -0.715719 1.87857 0 7.57662 1.04304 -0.717638 -0.714669 1.87955 0 8.29213 0.399731 -0.716095 -0.713681 1.88052 0 8.9581 -0.526302 -0.714507 -0.712754 1.88148 0 18.4163 -4.35419 -5.40042 -13.4623 2.11112 1.05879e-022 8.97127 1.78542 10.1711 -4.94874 -0.819673 6.14423 15.3316 -3.79324 -33.2338 2.41171 -2.63166 9.01906 -1.11411 -1.79347 -51.0396 -0.811981 -24.7657 27.687 0 0 9.16824 20.558 3.11929e-011 27.8738 0 0 -1.7232 -3.23095 -13.2995 -6.14423 15.3316 -3.79324 34.5186 3.75913 5.74265 -9.01884 -1.11411 -1.79347 29.4778 30.8818 41.8911 -27.0381 0.00109999 5.96046e-008 4.79116 12.7808 1.1272 -28.5227 0 0 -20.1643 -3.21169 8.18844 
